<svg aria-hidden="true" style="position: absolute; width: 0; height: 0; overflow: hidden;" version="1.1" xmlns="http://www.w3.org/2000/svg" xmlns:xlink="http://www.w3.org/1999/xlink">
<defs>
<symbol id="search" viewBox="0 0 32 32">
<path fill="#65c466" style="fill: var(--color1, #65c466)" d="M31.805 29.919l-9.296-9.296c1.763-2.177 2.824-4.944 2.824-7.957 0-6.984-5.682-12.667-12.667-12.667s-12.667 5.682-12.667 12.667c0 6.984 5.682 12.667 12.667 12.667 3.013 0 5.78-1.061 7.957-2.825l9.296 9.296c0.26 0.26 0.683 0.26 0.943 0l0.943-0.943c0.26-0.26 0.26-0.683-0-0.943zM12.667 22.667c-5.514 0-10-4.486-10-10s4.486-10 10-10c5.514 0 10 4.486 10 10s-4.486 10-10 10z"></path>
</symbol>
<symbol id="cross" viewBox="0 0 32 32">
<path d="M29.582 27.465l-26.349-26.349c-0.617-0.617-1.59-0.643-2.175-0.058s-0.559 1.558 0.058 2.175l26.349 26.349c0.617 0.617 1.59 0.643 2.175 0.058s0.559-1.558-0.058-2.175z"></path>
<path d="M27.656 1.308l-26.349 26.349c-0.617 0.617-0.643 1.59-0.058 2.175s1.558 0.559 2.175-0.058l26.349-26.349c0.617-0.617 0.643-1.59 0.058-2.175s-1.558-0.559-2.175 0.058z"></path>
</symbol>
<symbol id="burger" viewBox="0 0 48 32">
<path fill="#fff" style="fill: var(--color2, #fff)" d="M46.125 14.222h-44.25c-1.036 0-1.875 0.796-1.875 1.778s0.839 1.778 1.875 1.778h44.25c1.036 0 1.875-0.796 1.875-1.778s-0.839-1.778-1.875-1.778z"></path>
<path fill="#fff" style="fill: var(--color2, #fff)" d="M46.125 0h-44.25c-1.036 0-1.875 0.796-1.875 1.778s0.839 1.778 1.875 1.778h44.25c1.036 0 1.875-0.796 1.875-1.778s-0.839-1.778-1.875-1.778z"></path>
<path fill="#fff" style="fill: var(--color2, #fff)" d="M46.125 28.444h-44.25c-1.036 0-1.875 0.796-1.875 1.778s0.839 1.778 1.875 1.778h44.25c1.036 0 1.875-0.796 1.875-1.778s-0.839-1.778-1.875-1.778z"></path>
</symbol>
<symbol id="open" viewBox="0 0 59 32">
<path fill="none" stroke="#294b29" style="stroke: var(--color1, #294b29)" stroke-linejoin="miter" stroke-linecap="butt" stroke-miterlimit="4" stroke-width="5.3333" d="M53.333 5.333l-24 21.333-24-21.333"></path>
</symbol>
<symbol id="close" viewBox="0 0 59 32">
<path fill="none" stroke="#294b29" style="stroke: var(--color1, #294b29)" stroke-linejoin="miter" stroke-linecap="butt" stroke-miterlimit="4" stroke-width="5.3333" d="M5.333 26.667l24-21.333 24 21.333"></path>
</symbol>
<symbol id="tel" viewBox="0 0 32 32">
<path fill="#fff" style="fill: var(--color2, #fff)" d="M29.432 21.004c-1.959 0-3.883-0.306-5.706-0.909-0.893-0.305-1.991-0.025-2.537 0.535l-3.598 2.716c-4.173-2.227-6.743-4.797-8.94-8.938l2.636-3.504c0.685-0.684 0.931-1.683 0.636-2.621-0.605-1.832-0.912-3.755-0.912-5.715 0-1.416-1.152-2.568-2.568-2.568h-5.877c-1.416 0-2.568 1.152-2.568 2.568 0 16.229 13.203 29.432 29.432 29.432 1.416 0 2.568-1.152 2.568-2.568v-5.86c0-1.416-1.152-2.568-2.568-2.568z"></path>
</symbol>
<symbol id="person" viewBox="0 0 32 32">
<path fill="#fff" style="fill: var(--color2, #fff)" d="M27.238 20.421c-1.72-1.72-3.768-2.994-6.002-3.765 2.393-1.648 3.965-4.406 3.965-7.525 0-5.035-4.096-9.131-9.131-9.131s-9.131 4.096-9.131 9.131c0 3.119 1.572 5.877 3.965 7.525-2.234 0.771-4.282 2.044-6.002 3.765-2.983 2.983-4.626 6.95-4.626 11.169h2.468c0-7.348 5.978-13.327 13.327-13.327s13.327 5.978 13.327 13.327h2.468c0-4.219-1.643-8.185-4.626-11.169zM16.069 15.795c-3.674 0-6.663-2.989-6.663-6.663s2.989-6.663 6.663-6.663c3.674 0 6.663 2.989 6.663 6.663s-2.989 6.663-6.663 6.663z"></path>
</symbol>
</defs>
</svg>
