<svg width="31" height="31" viewBox="0 0 31 31" fill="none" xmlns="http://www.w3.org/2000/svg">
<path d="M29.9328 28.6181L21.2558 19.9411C22.9015 17.9093 23.8922 15.3262 23.8922 12.5139C23.8922 5.9944 18.5881 0.690308 12.0686 0.690308C5.54915 0.690308 0.245117 5.9944 0.245117 12.5139C0.245117 19.0334 5.54921 24.3375 12.0687 24.3375C14.881 24.3375 17.4641 23.3467 19.4959 21.701L28.1729 30.378C28.416 30.621 28.8099 30.621 29.053 30.378L29.9329 29.4982C30.1758 29.2551 30.1758 28.8611 29.9328 28.6181ZM12.0687 21.8483C6.92142 21.8483 2.73431 17.6612 2.73431 12.5139C2.73431 7.36661 6.92142 3.1795 12.0687 3.1795C17.216 3.1795 21.4031 7.36661 21.4031 12.5139C21.4031 17.6612 17.216 21.8483 12.0687 21.8483Z" fill="#65C466"/>
</svg>
